<svg xmlns="http://www.w3.org/2000/svg" viewBox="0 0 100 100" width="100" height="100">
  <defs>
    <linearGradient id="cloud" x1="23" y1="20" x2="76" y2="82" gradientUnits="userSpaceOnUse">
      <stop stop-color="#075d59"/>
      <stop offset="0.52" stop-color="#087f75"/>
      <stop offset="1" stop-color="#09a08f"/>
    </linearGradient>
  </defs>

  <path
    d="M25.5 81.5C14 81.5 5 73 5 62.3c0-9.4 6.9-17.3 16.2-19C25.3 29 37.7 18.8 52.5 18.8c16.2 0 29.4 11.5 31 26.6C92.4 47 98.8 54.3 98.8 63c0 10.2-8.5 18.5-19.2 18.5H25.5Z"
    fill="#064d4b"
    opacity="0.2"
    transform="translate(0 2.5)"
  />
  <path
    d="M25.5 79C14 79 5 70.5 5 59.8c0-9.4 6.9-17.3 16.2-19C25.3 26.5 37.7 16.3 52.5 16.3c16.2 0 29.4 11.5 31 26.6 8.9 1.6 15.3 8.9 15.3 17.6C98.8 70.7 90.3 79 79.6 79H25.5Z"
    fill="url(#cloud)"
  />

  <path d="m31.5 47.5 10.5 9.4-10.5 9.4" fill="none" stroke="#ffffff" stroke-width="6" stroke-linecap="round" stroke-linejoin="round"/>
  <path d="M53.5 66.3h17" fill="none" stroke="#ffffff" stroke-width="6" stroke-linecap="round"/>
</svg>
