<svg xmlns="http://www.w3.org/2000/svg" viewBox="0 0 100 100" width="100" height="100">
  <defs>
    <linearGradient id="cloudFill" x1="0%" y1="0%" x2="100%" y2="100%">
      <stop offset="0%" stop-color="#2f8fe7"/>
      <stop offset="100%" stop-color="#0f6cbd"/>
    </linearGradient>
    <filter id="shadow" x="-20%" y="-20%" width="140%" height="140%">
      <feDropShadow dx="0" dy="2" stdDeviation="2" flood-opacity="0.22"/>
    </filter>
  </defs>

  <g filter="url(#shadow)">
    <path d="M74 38c0-10-8-18-18-18-6 0-11 3-14 8-2-2-5-3-8-3-7 0-12 5-12 12 0 1 0 2 0 3-8 1-14 8-14 16 0 9 7 16 15 16h46c8 0 15-7 15-15 0-7-5-13-10-15Z" fill="url(#cloudFill)"/>

    <g transform="translate(50 50)">
      <circle cx="0" cy="0" r="14" fill="#5d6875"/>
      <circle cx="0" cy="0" r="7.2" fill="#f6f7f8"/>
      <g fill="#5d6875">
        <rect x="-2.2" y="-20" width="4.4" height="8" rx="2"/>
        <rect x="-2.2" y="12" width="4.4" height="8" rx="2"/>
        <rect x="-20" y="-2.2" width="8" height="4.4" rx="2"/>
        <rect x="12" y="-2.2" width="8" height="4.4" rx="2"/>
        <rect x="-15.5" y="-15.5" width="6" height="4.4" rx="2" transform="rotate(-45)"/>
        <rect x="9.5" y="-15.5" width="6" height="4.4" rx="2" transform="rotate(45)"/>
        <rect x="-15.5" y="11.1" width="6" height="4.4" rx="2" transform="rotate(45)"/>
        <rect x="9.5" y="11.1" width="6" height="4.4" rx="2" transform="rotate(-45)"/>
      </g>
    </g>
  </g>
</svg>
